<svg xmlns="http://www.w3.org/2000/svg" width="2381" height="507" viewBox="0 0 793.60 169.00">
<rect width="793.60" height="169.00" fill="#ffffff"></rect>
<svg x="70" y="16" width="198" height="137" viewBox="0 0 128 100" preserveAspectRatio="none">
  <clipPath id="clip_l"><path d="M16 96 C 44 93 70 82 92 32 L92 98 L16 98 Z"></path></clipPath>
  <path d="M16 46 H90" stroke="#14365c" stroke-width="1.4" stroke-dasharray="4 3" stroke-linecap="round" fill="none" opacity="0.45"></path>
  <path d="M45 49 H61 M47.5 51.3 H58.5 M50 53.6 H56" stroke="#14365c" stroke-width="1.4" stroke-linecap="round" fill="none" opacity="0.55"></path>
  <g clip-path="url(#clip_l)">
    <rect x="14" y="32" width="80" height="13" fill="#cfeaf9"></rect><rect x="14" y="45" width="80" height="13" fill="#8fd0f2"></rect>
    <rect x="14" y="58" width="80" height="13" fill="#3aa0e0"></rect><rect x="14" y="71" width="80" height="13" fill="#1f7fc4"></rect>
    <rect x="14" y="84" width="80" height="14" fill="#15518f"></rect>
  </g>
  <path d="M16 96 C 44 93 70 82 92 32 C 100 14 102 11 103 9" fill="none" stroke="#14365c" stroke-width="3.5" stroke-linecap="round"></path>
  <polygon points="106 3.5, 106.8 11, 99 7.2" fill="#14365c"></polygon>
  <path d="M92 30 L100 30 C 101 60 106 84 124 98 L92 98 Z" fill="#3c4654"></path>
  <rect x="90" y="26.5" width="11" height="4.6" rx="1.2" fill="#2a323d"></rect>
  <path d="M16 14 V98 H126" fill="none" stroke="#14365c" stroke-width="3" stroke-linecap="round" stroke-linejoin="round"></path></svg>
<path d="M371.08 148.60L307.24 148.60L307.24 50.60L370.24 50.60L370.24 67.40L325.72 67.40L325.72 90.78L366.32 90.78L366.32 107.58L325.72 107.58L325.72 131.80L371.08 131.80L371.08 148.60Z" fill="#14365c"></path>
<svg x="380.5" y="50.6" width="85.2" height="98" viewBox="0 0 40 46"><path d="M20 4 L4 44" fill="none" stroke="#14365c" stroke-width="8" stroke-linecap="round"></path><path d="M20 4 L36 44" fill="none" stroke="#14365c" stroke-width="8" stroke-linecap="round"></path><polygon points="20 24, 28 45, 12 45" fill="#1fa9e6"></polygon></svg>
<path d="M527.78 148.60L496.14 148.60L471.22 50.60L490.26 50.60L510.98 136.70L512.94 136.70L533.66 50.60L552.70 50.60L527.78 148.60ZM628.30 148.60L564.46 148.60L564.46 50.60L627.46 50.60L627.46 67.40L582.94 67.40L582.94 90.78L623.54 90.78L623.54 107.58L582.94 107.58L582.94 131.80L628.30 131.80L628.30 148.60ZM676.04 150.56L676.04 150.56Q664.70 150.56 656.02 146.50Q647.34 142.44 642.44 134.88Q637.54 127.32 637.54 116.68L637.54 116.68L637.54 112.76L655.74 112.76L655.74 116.68Q655.74 125.50 661.20 129.91Q666.66 134.32 676.04 134.32L676.04 134.32Q685.56 134.32 690.25 130.54Q694.94 126.76 694.94 120.88L694.94 120.88Q694.94 116.82 692.63 114.30Q690.32 111.78 685.91 110.17Q681.50 108.56 675.20 107.16L675.20 107.16L671.98 106.46Q661.90 104.22 654.69 100.79Q647.48 97.36 643.63 91.76Q639.78 86.16 639.78 77.20L639.78 77.20Q639.78 68.24 644.05 61.87Q648.32 55.50 656.09 52.07Q663.86 48.64 674.36 48.64L674.36 48.64Q684.86 48.64 693.05 52.21Q701.24 55.78 705.93 62.85Q710.62 69.92 710.62 80.56L710.62 80.56L710.62 84.76L692.42 84.76L692.42 80.56Q692.42 74.96 690.25 71.53Q688.08 68.10 684.02 66.49Q679.96 64.88 674.36 64.88L674.36 64.88Q665.96 64.88 661.97 68.03Q657.98 71.18 657.98 76.64L657.98 76.64Q657.98 80.28 659.87 82.80Q661.76 85.32 665.54 87.00Q669.32 88.68 675.20 89.94L675.20 89.94L678.42 90.64Q688.92 92.88 696.69 96.38Q704.46 99.88 708.80 105.62Q713.14 111.36 713.14 120.32L713.14 120.32Q713.14 129.28 708.59 136.07Q704.04 142.86 695.71 146.71Q687.38 150.56 676.04 150.56Z" fill="#14365c"></path>
</svg>